<svg xmlns="http://www.w3.org/2000/svg" width="24" height="24" viewBox="0 0 24 24">
  <!-- Filled outlines preserve shape during GTK symbolic recoloring. -->
  <path fill="#2e3436" fill-rule="evenodd" d="M9.066,2.000 L9.649,2.077 L10.254,2.327 L10.774,2.726 L11.173,3.246 L11.423,3.851 L11.500,4.434 L11.500,9.066 L11.423,9.649 L11.173,10.254 L10.774,10.774 L10.254,11.173 L9.649,11.423 L9.066,11.500 L4.434,11.500 L3.851,11.423 L3.246,11.173 L2.726,10.774 L2.327,10.254 L2.077,9.649 L2.000,9.066 L2.000,4.434 L2.077,3.851 L2.327,3.246 L2.726,2.726 L3.246,2.327 L3.851,2.077 L4.434,2.000 Z M4.566,4.000 L4.373,4.025 L4.254,4.074 L4.153,4.153 L4.074,4.254 L4.025,4.373 L4.000,4.566 L4.000,8.934 L4.025,9.127 L4.074,9.246 L4.153,9.347 L4.254,9.426 L4.373,9.475 L4.566,9.500 L8.934,9.500 L9.127,9.475 L9.246,9.426 L9.347,9.347 L9.426,9.246 L9.475,9.127 L9.500,8.934 L9.500,4.566 L9.475,4.373 L9.426,4.254 L9.347,4.153 L9.246,4.074 L9.127,4.025 L8.934,4.000 Z"/><path fill="#2e3436" fill-rule="evenodd" d="M19.566,2.000 L20.149,2.077 L20.754,2.327 L21.274,2.726 L21.673,3.246 L21.923,3.851 L22.000,4.434 L22.000,9.066 L21.923,9.649 L21.673,10.254 L21.274,10.774 L20.754,11.173 L20.149,11.423 L19.566,11.500 L14.934,11.500 L14.351,11.423 L13.746,11.173 L13.226,10.774 L12.827,10.254 L12.577,9.649 L12.500,9.066 L12.500,4.434 L12.577,3.851 L12.827,3.246 L13.226,2.726 L13.746,2.327 L14.351,2.077 L14.934,2.000 Z M15.066,4.000 L14.873,4.025 L14.754,4.074 L14.653,4.153 L14.574,4.254 L14.525,4.373 L14.500,4.566 L14.500,8.934 L14.525,9.127 L14.574,9.246 L14.653,9.347 L14.754,9.426 L14.873,9.475 L15.066,9.500 L19.434,9.500 L19.627,9.475 L19.746,9.426 L19.847,9.347 L19.926,9.246 L19.975,9.127 L20.000,8.934 L20.000,4.566 L19.975,4.373 L19.926,4.254 L19.847,4.153 L19.746,4.074 L19.627,4.025 L19.434,4.000 Z"/><path fill="#2e3436" fill-rule="evenodd" d="M9.066,12.500 L9.649,12.577 L10.254,12.827 L10.774,13.226 L11.173,13.746 L11.423,14.351 L11.500,14.934 L11.500,19.566 L11.423,20.149 L11.173,20.754 L10.774,21.274 L10.254,21.673 L9.649,21.923 L9.066,22.000 L4.434,22.000 L3.851,21.923 L3.246,21.673 L2.726,21.274 L2.327,20.754 L2.077,20.149 L2.000,19.566 L2.000,14.934 L2.077,14.351 L2.327,13.746 L2.726,13.226 L3.246,12.827 L3.851,12.577 L4.434,12.500 Z M4.566,14.500 L4.373,14.525 L4.254,14.574 L4.153,14.653 L4.074,14.754 L4.025,14.873 L4.000,15.066 L4.000,19.434 L4.025,19.627 L4.074,19.746 L4.153,19.847 L4.254,19.926 L4.373,19.975 L4.566,20.000 L8.934,20.000 L9.127,19.975 L9.246,19.926 L9.347,19.847 L9.426,19.746 L9.475,19.627 L9.500,19.434 L9.500,15.066 L9.475,14.873 L9.426,14.754 L9.347,14.653 L9.246,14.574 L9.127,14.525 L8.934,14.500 Z"/><path fill="#2e3436" fill-rule="evenodd" d="M19.566,12.500 L20.149,12.577 L20.754,12.827 L21.274,13.226 L21.673,13.746 L21.923,14.351 L22.000,14.934 L22.000,19.566 L21.923,20.149 L21.673,20.754 L21.274,21.274 L20.754,21.673 L20.149,21.923 L19.566,22.000 L14.934,22.000 L14.351,21.923 L13.746,21.673 L13.226,21.274 L12.827,20.754 L12.577,20.149 L12.500,19.566 L12.500,14.934 L12.577,14.351 L12.827,13.746 L13.226,13.226 L13.746,12.827 L14.351,12.577 L14.934,12.500 Z M15.066,14.500 L14.873,14.525 L14.754,14.574 L14.653,14.653 L14.574,14.754 L14.525,14.873 L14.500,15.066 L14.500,19.434 L14.525,19.627 L14.574,19.746 L14.653,19.847 L14.754,19.926 L14.873,19.975 L15.066,20.000 L19.434,20.000 L19.627,19.975 L19.746,19.926 L19.847,19.847 L19.926,19.746 L19.975,19.627 L20.000,19.434 L20.000,15.066 L19.975,14.873 L19.926,14.754 L19.847,14.653 L19.746,14.574 L19.627,14.525 L19.434,14.500 Z"/>
</svg>
