<svg xmlns="http://www.w3.org/2000/svg" width="24" height="24" viewBox="0 0 24 24">
  <!-- Filled outlines preserve shape during GTK symbolic recoloring. -->
  <path fill="#2e3436" fill-rule="evenodd" d="M17.506,10.000 L17.318,11.670 L16.763,13.257 L15.869,14.680 L14.680,15.869 L13.257,16.763 L11.670,17.318 L10.000,17.506 L8.330,17.318 L6.743,16.763 L5.320,15.869 L4.131,14.680 L3.237,13.257 L2.682,11.670 L2.494,10.000 L2.682,8.330 L3.237,6.743 L4.131,5.320 L5.320,4.131 L6.743,3.237 L8.330,2.682 L10.000,2.494 L11.670,2.682 L13.257,3.237 L14.680,4.131 L15.869,5.320 L16.763,6.743 L17.318,8.330 Z M15.356,8.778 L14.950,7.616 L14.295,6.575 L13.425,5.705 L12.384,5.050 L11.222,4.644 L10.000,4.506 L8.778,4.644 L7.616,5.050 L6.575,5.705 L5.705,6.575 L5.050,7.616 L4.644,8.778 L4.506,10.000 L4.644,11.222 L5.050,12.384 L5.705,13.425 L6.575,14.295 L7.616,14.950 L8.778,15.356 L10.000,15.494 L11.222,15.356 L12.384,14.950 L13.425,14.295 L14.295,13.425 L14.950,12.384 L15.356,11.222 L15.494,10.000 Z"/><path fill="#2e3436" fill-rule="evenodd" d="M13.162,15.000 L20.500,22.338 L22.338,20.500 L15.000,13.162 Z"/>
</svg>
